<?xml version="1.0" encoding="UTF-8" standalone="no"?>
<!DOCTYPE svg PUBLIC "-//W3C//DTD SVG 20010904//EN"
              "http://www.w3.org/TR/2001/REC-SVG-20010904/DTD/svg10.dtd">

<svg xmlns="http://www.w3.org/2000/svg"
     width="18.5556in" height="1.88889in"
     viewBox="0 0 1336 136">
  <path id="Selection #1"
        fill="none" stroke="black" stroke-width="1"
        d="M 1196.00,2.00
           C 1196.00,2.00 1202.98,3.60 1202.98,3.60
             1202.98,3.60 1204.00,15.00 1204.00,15.00
             1204.00,15.00 1164.00,15.00 1164.00,15.00
             1164.00,15.00 1164.00,2.00 1164.00,2.00
             1164.00,2.00 1196.00,2.00 1196.00,2.00 Z
           M 1087.00,8.00
           C 1098.86,8.20 1091.39,18.41 1104.00,21.62
             1113.04,23.92 1144.73,23.00 1156.00,23.00
             1156.00,23.00 1156.00,53.00 1156.00,53.00
             1156.00,53.00 1094.00,53.00 1094.00,53.00
             1094.00,53.00 1094.00,87.00 1094.00,87.00
             1094.00,91.35 1093.29,98.24 1095.89,101.79
             1099.13,106.21 1104.12,105.99 1109.00,106.00
             1109.00,106.00 1147.00,106.00 1147.00,106.00
             1153.74,106.01 1155.86,105.51 1156.00,113.00
             1156.00,113.00 1156.00,135.00 1156.00,135.00
             1156.00,135.00 1075.00,135.00 1075.00,135.00
             1072.47,135.00 1069.41,135.11 1067.00,134.35
             1057.32,131.32 1054.11,120.05 1054.00,111.00
             1054.00,111.00 1054.00,8.00 1054.00,8.00
             1054.00,8.00 1087.00,8.00 1087.00,8.00 Z
           M 1204.00,22.00
           C 1204.00,22.00 1204.00,109.00 1204.00,109.00
             1204.00,109.00 1204.00,129.00 1204.00,129.00
             1204.00,129.00 1202.40,134.98 1202.40,134.98
             1202.40,134.98 1195.00,136.00 1195.00,136.00
             1195.00,136.00 1164.00,136.00 1164.00,136.00
             1164.00,136.00 1164.00,22.00 1164.00,22.00
             1164.00,22.00 1204.00,22.00 1204.00,22.00 Z
           M 1236.00,135.00
           C 1231.18,134.99 1227.40,135.03 1223.01,132.59
             1213.49,127.27 1211.12,111.98 1211.00,102.00
             1211.00,102.00 1211.00,48.00 1211.00,48.00
             1211.08,41.20 1212.18,33.22 1217.21,28.21
             1222.78,22.67 1233.50,22.01 1241.00,22.00
             1241.00,22.00 1333.00,22.00 1333.00,22.00
             1333.00,22.00 1333.00,53.00 1333.00,53.00
             1333.00,53.00 1265.00,53.00 1265.00,53.00
             1254.68,53.02 1252.02,54.25 1252.00,65.00
             1252.00,65.00 1252.00,91.00 1252.00,91.00
             1252.00,94.51 1251.46,99.99 1253.60,102.85
             1256.22,106.36 1260.11,105.99 1264.00,106.00
             1264.00,106.00 1333.00,106.00 1333.00,106.00
             1333.00,106.00 1333.00,135.00 1333.00,135.00
             1333.00,135.00 1236.00,135.00 1236.00,135.00 Z
           M 860.00,23.00
           C 868.13,23.01 878.68,24.23 884.66,30.33
             890.65,36.43 891.99,50.71 892.00,59.00
             892.00,59.00 892.00,135.00 892.00,135.00
             892.00,135.00 849.00,135.00 849.00,135.00
             849.00,135.00 849.00,68.00 849.00,68.00
             848.98,55.38 844.74,55.02 833.00,55.00
             828.03,54.99 820.12,54.31 816.51,58.30
             812.88,62.32 814.00,74.52 814.00,80.00
             814.00,80.00 814.00,135.00 814.00,135.00
             814.00,135.00 768.00,135.00 768.00,135.00
             768.00,135.00 768.00,67.00 768.00,67.00
             768.00,65.04 768.11,61.83 767.40,60.06
             764.99,54.04 755.31,54.98 750.00,55.00
             739.66,55.05 735.06,55.69 735.00,67.00
             735.00,67.00 735.00,135.00 735.00,135.00
             735.00,135.00 693.00,135.00 693.00,135.00
             693.00,135.00 693.00,23.00 693.00,23.00
             693.00,23.00 860.00,23.00 860.00,23.00 Z
           M 1018.00,23.00
           C 1021.72,23.01 1024.33,22.93 1028.00,23.93
             1042.56,27.87 1044.98,40.82 1045.00,54.00
             1045.00,54.00 1045.00,115.00 1045.00,115.00
             1045.00,119.87 1046.46,131.25 1041.85,133.98
             1039.80,135.19 1036.35,135.00 1034.00,135.00
             1034.00,135.00 926.00,135.00 926.00,135.00
             922.06,134.99 918.70,135.14 915.00,133.44
             896.34,124.90 894.94,89.68 906.53,75.01
             913.04,66.77 921.06,65.02 931.00,65.00
             931.00,65.00 990.00,65.00 990.00,65.00
             992.76,65.00 996.45,65.21 998.89,63.83
             1003.20,61.39 1003.21,56.46 998.89,54.02
             996.74,52.81 993.43,53.00 991.00,53.00
             991.00,53.00 904.00,53.00 904.00,53.00
             904.00,53.00 904.00,23.00 904.00,23.00
             904.00,23.00 1018.00,23.00 1018.00,23.00 Z
           M 949.00,93.00
           C 944.04,93.07 939.21,93.76 939.21,100.00
             939.21,106.24 944.04,106.93 949.00,107.00
             949.00,107.00 1001.00,107.00 1001.00,107.00
             1001.00,107.00 1001.00,93.00 1001.00,93.00
             1001.00,93.00 949.00,93.00 949.00,93.00 Z" />
</svg>
