<?xml version="1.0" encoding="UTF-8" standalone="no"?>
<!DOCTYPE svg PUBLIC "-//W3C//DTD SVG 20010904//EN"
              "http://www.w3.org/TR/2001/REC-SVG-20010904/DTD/svg10.dtd">

<svg xmlns="http://www.w3.org/2000/svg"
     width="18.5556in" height="1.88889in"
     viewBox="0 0 1336 136">
  <path id="Selection"
        fill="none" stroke="black" stroke-width="1"
        d="M 33.00,8.00
           C 44.72,8.07 39.07,13.55 46.21,19.35
             49.87,22.32 56.42,22.94 61.00,23.00
             61.00,23.00 103.00,23.00 103.00,23.00
             103.00,23.00 103.00,53.00 103.00,53.00
             103.00,53.00 41.00,53.00 41.00,53.00
             41.00,53.00 41.00,92.00 41.00,92.00
             41.01,97.21 40.84,101.67 46.09,104.55
             49.96,106.66 59.34,106.00 64.00,106.00
             64.00,106.00 103.00,106.00 103.00,106.00
             103.00,106.00 103.00,135.00 103.00,135.00
             103.00,135.00 22.00,135.00 22.00,135.00
             19.47,135.00 16.41,135.11 14.00,134.35
             3.08,130.93 1.02,117.77 1.00,108.00
             1.00,108.00 1.00,8.00 1.00,8.00
             1.00,8.00 33.00,8.00 33.00,8.00 Z
           M 109.00,51.00
           C 109.00,44.96 107.29,28.45 112.23,24.85
             115.10,22.76 119.59,23.01 123.00,23.00
             123.00,23.00 194.00,23.00 194.00,23.00
             194.00,23.00 194.00,53.00 194.00,53.00
             194.00,53.00 161.00,53.00 161.00,53.00
             158.31,53.01 154.64,52.68 152.51,54.60
             149.86,56.99 150.02,61.72 150.00,65.00
             150.00,65.00 150.00,135.00 150.00,135.00
             150.00,135.00 109.00,135.00 109.00,135.00
             109.00,135.00 109.00,51.00 109.00,51.00 Z
           M 314.00,23.00
           C 318.16,23.01 320.93,22.95 325.00,24.22
             338.34,28.39 340.85,41.65 341.00,54.00
             341.00,54.00 341.00,104.00 341.00,104.00
             341.00,104.00 341.00,125.00 341.00,125.00
             340.96,127.93 340.99,131.30 338.57,133.40
             336.38,135.31 332.74,134.99 330.00,135.00
             330.00,135.00 222.00,135.00 222.00,135.00
             218.45,134.99 215.41,135.12 212.00,133.87
             198.33,128.84 194.85,110.78 195.00,98.00
             195.14,85.98 200.27,72.54 212.00,67.47
             220.24,63.90 230.15,65.00 239.00,65.00
             239.00,65.00 286.00,65.00 286.00,65.00
             289.15,64.99 293.14,65.28 295.77,63.26
             299.78,60.18 298.34,55.32 293.96,53.60
             291.80,52.75 285.60,53.00 283.00,53.00
             283.00,53.00 262.00,53.00 262.00,53.00
             262.00,53.00 238.00,53.00 238.00,53.00
             238.00,53.00 200.00,53.00 200.00,53.00
             200.00,53.00 200.00,23.00 200.00,23.00
             200.00,23.00 314.00,23.00 314.00,23.00 Z
           M 471.00,23.00
           C 475.07,23.01 478.04,22.95 482.00,24.22
             495.63,28.58 497.98,41.45 498.00,54.00
             498.00,54.00 498.00,135.00 498.00,135.00
             498.00,135.00 457.00,135.00 457.00,135.00
             457.00,135.00 457.00,65.00 457.00,65.00
             456.98,54.34 455.66,53.02 445.00,53.00
             445.00,53.00 407.00,53.00 407.00,53.00
             403.13,53.00 395.25,52.27 392.23,54.60
             388.64,57.37 389.01,61.96 389.00,66.00
             389.00,66.00 389.00,135.00 389.00,135.00
             389.00,135.00 347.00,135.00 347.00,135.00
             347.00,135.00 347.00,23.00 347.00,23.00
             347.00,23.00 471.00,23.00 471.00,23.00 Z
           M 588.00,106.00
           C 590.93,106.00 594.24,106.15 596.98,104.99
             601.08,103.26 603.57,98.98 598.85,96.17
             596.53,94.79 592.66,95.00 590.00,95.00
             590.00,95.00 539.00,95.00 539.00,95.00
             528.02,94.98 518.65,93.15 511.53,84.00
             498.28,66.98 503.13,30.29 526.00,23.79
             529.13,22.90 531.80,23.00 535.00,23.00
             535.00,23.00 639.00,23.00 639.00,23.00
             639.00,23.00 640.00,53.00 640.00,53.00
             640.00,53.00 605.00,53.00 605.00,53.00
             605.00,53.00 561.00,53.00 561.00,53.00
             558.63,53.00 555.21,52.81 553.12,54.02
             549.08,56.38 549.89,60.75 554.05,62.40
             555.83,63.11 559.03,63.00 561.00,63.00
             561.00,63.00 622.00,63.00 622.00,63.00
             642.76,63.25 648.19,83.85 648.00,101.00
             647.85,113.88 642.80,130.22 629.00,134.21
             625.93,135.10 623.15,135.00 620.00,135.00
             620.00,135.00 508.00,135.00 508.00,135.00
             508.00,135.00 508.00,106.00 508.00,106.00
             508.00,106.00 588.00,106.00 588.00,106.00 Z
           M 687.00,70.00
           C 687.00,70.00 687.00,90.00 687.00,90.00
             687.00,90.00 659.00,90.00 659.00,90.00
             659.00,90.00 652.02,88.40 652.02,88.40
             652.02,88.40 651.00,70.00 651.00,70.00
             651.00,70.00 687.00,70.00 687.00,70.00 Z
           M 245.00,93.00
           C 240.04,93.07 235.21,93.76 235.21,100.00
             235.21,105.87 239.13,106.91 244.00,107.00
             244.00,107.00 296.00,107.00 296.00,107.00
             296.00,107.00 296.00,93.00 296.00,93.00
             296.00,93.00 245.00,93.00 245.00,93.00 Z" />
</svg>
