<?xml version="1.0" encoding="iso-8859-1"?>
<!-- Generator: Adobe Illustrator 19.0.0, SVG Export Plug-In . SVG Version: 6.00 Build 0)  -->
<svg xmlns="http://www.w3.org/2000/svg" xmlns:xlink="http://www.w3.org/1999/xlink" version="1.1" id="Layer_1" x="0px" y="0px" viewBox="0 0 512 512" style="enable-background:new 0 0 512 512;" xml:space="preserve" width="512px" height="512px">
<g>
	<g>
		<path d="M496,383.004h-20.475V178.716c0-24.386-19.84-44.226-44.226-44.226h-59.854v-5.493c11.523,0,17.438-7.953,17.438-16    c0-8.836-7.164-16-16-16c-12.428,0-99.963,0-110.414,0c-8.836,0-16,7.164-16,16c0,7.996,5.84,16,17.445,16v5.493H195.22v-5.493    c11.251,0,17.353-7.789,17.353-16c0-8.836-7.164-16-16-16c-12.37,0-99.415,0-110.414,0c-8.836,0-16,7.164-16,16    c0,7.792,5.674,16,17.359,16v5.493H80.7c-24.386,0-44.226,19.84-44.226,44.226v204.288H16c-8.836,0-16,7.164-16,16    c0,8.836,7.164,16,16,16c26.335,0,453.395,0,480,0c8.836,0,16-7.164,16-16C512,390.167,504.836,383.004,496,383.004z     M356.314,294.353c0,11.01-8.926,19.936-19.936,19.936s-19.936-8.926-19.936-19.936s8.926-19.936,19.936-19.936    C347.389,274.416,356.314,283.342,356.314,294.353z M295.914,216.16v-87.164h43.532c0,25.123,0,74.363,0,87.164    c0,4.831,1.971,7.7,3.441,10.251h-50.415C293.936,223.874,295.914,221.004,295.914,216.16z M289.313,284.079    c5.674,0,10.273,4.601,10.273,10.274s-4.599,10.274-10.273,10.274c-5.674,0-10.274-4.599-10.274-10.274    C279.039,288.679,283.638,284.079,289.313,284.079z M119.519,128.996h43.701v62.118h-43.701V128.996z M141.366,280.154    c9.265,0,16.777,7.511,16.777,16.778c0,9.265-7.511,16.777-16.777,16.777c-9.266,0-16.776-7.511-16.776-16.777    C124.59,287.664,132.1,280.154,141.366,280.154z M132.721,257.324c0-4.775,3.871-8.645,8.645-8.645    c4.774,0,8.645,3.871,8.645,8.645s-3.871,8.645-8.645,8.645S132.721,262.098,132.721,257.324z M443.524,383.005H68.475V178.716    c0-13.758,15.214-12.226,19.044-12.226c0,7.015-0.001,135.091-0.001,142.62c0,29.691,24.156,53.845,53.845,53.845    c29.744,0,53.855-24.059,53.855-53.845c0-7.504,0.001-135.668,0.001-142.62h68.694v45.382    c-15.775,27.321-3.645,6.31-54.049,93.612c-14.605,25.299,3.628,56.927,32.866,56.927h149.888    c29.208,0,47.484-31.603,32.864-56.928c-51.398-89.022-37.257-64.523-54.037-93.606v-45.386h59.853    c6.741,0,12.226,5.485,12.226,12.226V383.005z" fill="#D80027"/>
	</g>
</g>
<g>
</g>
<g>
</g>
<g>
</g>
<g>
</g>
<g>
</g>
<g>
</g>
<g>
</g>
<g>
</g>
<g>
</g>
<g>
</g>
<g>
</g>
<g>
</g>
<g>
</g>
<g>
</g>
<g>
</g>
</svg>
