<?xml version="1.0" encoding="UTF-8" standalone="no"?>
<!DOCTYPE svg PUBLIC "-//W3C//DTD SVG 20010904//EN"
              "http://www.w3.org/TR/2001/REC-SVG-20010904/DTD/svg10.dtd">

<svg xmlns="http://www.w3.org/2000/svg"
     width="1.94444in" height="1.94444in"
     viewBox="0 0 140 140">
  <path id="Selection #2"
        fill="none" stroke="black" stroke-width="1"
        d="M 132.00,32.00
           C 132.00,32.00 132.00,48.00 132.00,48.00
             132.00,48.00 104.00,48.00 104.00,48.00
             104.00,48.00 104.00,32.00 104.00,32.00
             104.00,32.00 132.00,32.00 132.00,32.00 Z
           M 100.00,52.00
           C 100.00,52.00 100.00,60.00 100.00,60.00
             100.00,60.00 132.00,60.00 132.00,60.00
             132.00,60.00 132.00,104.00 132.00,104.00
             132.00,104.00 80.00,104.00 80.00,104.00
             80.00,104.00 80.00,88.00 80.00,88.00
             80.00,88.00 112.00,88.00 112.00,88.00
             112.00,88.00 112.00,76.00 112.00,76.00
             112.00,76.00 80.00,76.00 80.00,76.00
             80.00,76.00 80.00,52.00 80.00,52.00
             80.00,52.00 100.00,52.00 100.00,52.00 Z" />
</svg>
