<?xml version="1.0" encoding="UTF-8" standalone="no"?>
<!DOCTYPE svg PUBLIC "-//W3C//DTD SVG 20010904//EN"
              "http://www.w3.org/TR/2001/REC-SVG-20010904/DTD/svg10.dtd">

<svg xmlns="http://www.w3.org/2000/svg"
     width="1.94444in" height="1.94444in"
     viewBox="0 0 140 140">
  <path id="Selection #1"
        fill="none" stroke="black" stroke-width="1"
        d="M 140.00,0.00
           C 140.00,0.00 140.00,24.00 140.00,24.00
             140.00,24.00 0.00,24.00 0.00,24.00
             0.00,24.00 0.00,0.00 0.00,0.00
             0.00,0.00 140.00,0.00 140.00,0.00 Z
           M 136.00,28.00
           C 136.00,28.00 136.00,108.00 136.00,108.00
             136.00,108.00 4.00,108.00 4.00,108.00
             4.00,108.00 4.00,28.00 4.00,28.00
             4.00,28.00 136.00,28.00 136.00,28.00 Z
           M 8.00,32.00
           C 8.00,32.00 8.00,104.00 8.00,104.00
             8.00,104.00 52.00,104.00 52.00,104.00
             52.00,104.00 52.00,88.00 52.00,88.00
             52.00,88.00 28.00,88.00 28.00,88.00
             28.00,88.00 28.00,32.00 28.00,32.00
             28.00,32.00 8.00,32.00 8.00,32.00 Z
           M 32.00,32.00
           C 32.00,32.00 32.00,48.00 32.00,48.00
             32.00,48.00 56.00,48.00 56.00,48.00
             56.00,48.00 56.00,104.00 56.00,104.00
             56.00,104.00 76.00,104.00 76.00,104.00
             76.00,104.00 76.00,48.00 76.00,48.00
             76.00,48.00 100.00,48.00 100.00,48.00
             100.00,48.00 100.00,32.00 100.00,32.00
             100.00,32.00 32.00,32.00 32.00,32.00 Z
           M 104.00,32.00
           C 104.00,32.00 104.00,48.00 104.00,48.00
             104.00,48.00 132.00,48.00 132.00,48.00
             132.00,48.00 132.00,32.00 132.00,32.00
             132.00,32.00 104.00,32.00 104.00,32.00 Z
           M 80.00,52.00
           C 80.00,52.00 80.00,76.00 80.00,76.00
             80.00,76.00 112.00,76.00 112.00,76.00
             112.00,76.00 112.00,88.00 112.00,88.00
             112.00,88.00 80.00,88.00 80.00,88.00
             80.00,88.00 80.00,104.00 80.00,104.00
             80.00,104.00 132.00,104.00 132.00,104.00
             132.00,104.00 132.00,60.00 132.00,60.00
             132.00,60.00 100.00,60.00 100.00,60.00
             100.00,60.00 100.00,52.00 100.00,52.00
             100.00,52.00 80.00,52.00 80.00,52.00 Z
           M 140.00,112.00
           C 140.00,112.00 140.00,140.00 140.00,140.00
             140.00,140.00 0.00,140.00 0.00,140.00
             0.00,140.00 0.00,112.00 0.00,112.00
             0.00,112.00 140.00,112.00 140.00,112.00 Z" />
</svg>
