<?xml version="1.0" encoding="iso-8859-1"?>
<!-- Generator: Adobe Illustrator 19.0.0, SVG Export Plug-In . SVG Version: 6.00 Build 0)  -->
<svg version="1.1" id="Capa_1" xmlns="http://www.w3.org/2000/svg" xmlns:xlink="http://www.w3.org/1999/xlink" x="0px" y="0px"
	 viewBox="0 0 60 60" style="enable-background:new 0 0 60 60;" xml:space="preserve">
<g>
	<g>
		<path d="M59,4.5H1c-0.6,0-1,0.4-1,1v37c0,0.6,0.4,1,1,1h14v-2H2V7.2l27.5,17.1c0.1,0.1,0.3,0.2,0.5,0.2s0.4-0.1,0.6-0.1L58,7.4
			v34.1h-5v2h6c0.6,0,1-0.4,1-1v-37C60,4.9,59.6,4.5,59,4.5z M30,22.3L4.6,6.5h50.9L30,22.3z"/>
		<path d="M49,34.5H19c-0.6,0-1,0.4-1,1v13H2v2h16v3H7v2h12h30c0.6,0,1-0.4,1-1v-19C50,34.9,49.6,34.5,49,34.5z M45.3,36.5L34,43.3
			l-11.5-6.8H45.3z M20,53.5V37.3l13.5,8.1c0.1,0.1,0.3,0.1,0.5,0.1s0.4,0,0.5-0.2L48,37.2v16.3H20z"/>
		<rect y="53.5" width="4" height="2"/>
	</g>
</g>
<g>
</g>
<g>
</g>
<g>
</g>
<g>
</g>
<g>
</g>
<g>
</g>
<g>
</g>
<g>
</g>
<g>
</g>
<g>
</g>
<g>
</g>
<g>
</g>
<g>
</g>
<g>
</g>
<g>
</g>
</svg>
