<?xml version="1.0" encoding="utf-8"?>
<!-- Generator: Adobe Illustrator 15.0.0, SVG Export Plug-In . SVG Version: 6.00 Build 0)  -->
<!DOCTYPE svg PUBLIC "-//W3C//DTD SVG 1.1//EN" "http://www.w3.org/Graphics/SVG/1.1/DTD/svg11.dtd">
<svg version="1.1" id="Layer_1" xmlns="http://www.w3.org/2000/svg" xmlns:xlink="http://www.w3.org/1999/xlink" x="0px" y="0px"
	 width="64px" height="44px" viewBox="0 0 64 54" enable-background="new 0 0 64 64" xml:space="preserve">
<g>
	<path fill="Black" d="M62,47.001c0,3.3-2.7,6-6,6H8c-3.3,0-6-2.7-6-6v-30c0-3.3,2.7-6,6-6h48c3.3,0,6,2.7,6,6V47.001z"/>
	<path fill="#FAFAFA" d="M15,48.001c0,0.55-0.45,1-1,1h-4c-0.55,0-1-0.45-1-1v-4c0-0.55,0.45-1,1-1h4c0.55,0,1,0.45,1,1V48.001z"/>
	<path fill="#FAFAFA" d="M23,48.001c0,0.55-0.45,1-1,1h-4c-0.55,0-1-0.45-1-1v-4c0-0.55,0.45-1,1-1h4c0.55,0,1,0.45,1,1V48.001z"/>
	<path fill="#FAFAFA" d="M31,48.001c0,0.55-0.45,1-1,1h-4c-0.55,0-1-0.45-1-1v-4c0-0.55,0.45-1,1-1h4c0.55,0,1,0.45,1,1V48.001z"/>
	<path fill="#FAFAFA"  d="M9,15.001c-1.1,0-2,0.899-2,2v22c0,1.101,0.9,2,2,2h21c1.1,0,2.703,0.562,3.562,1.249l6.877,5.502
		c0.858,0.688,2.462,1.249,3.562,1.249h11c1.1,0,2-0.899,2-2v-30c0-1.101-0.9-2-2-2H9z"/>
	<path fill="Black" d="M55,45.001c0,1.101-0.9,2-2,2h-8c-1.1,0-2.721-0.54-3.6-1.2l-4.801-3.6c-0.879-0.66-0.699-1.2,0.4-1.2h16
		c1.1,0,2,0.899,2,2V45.001z"/>
	<path fill="#E0E0E0" d="M46.414,45.76c-0.322,0.322-0.851,0.322-1.173,0l0,0c-0.321-0.322-0.321-0.851,0-1.173l2.345-2.345
		c0.322-0.322,0.85-0.322,1.172,0l0,0c0.322,0.322,0.322,0.851,0,1.173L46.414,45.76z"/>
	<polygon fill="#212121" points="19,46.001 21,47.001 21,45.001 	"/>
	<polygon fill="#212121" points="29,46.001 27,47.001 27,45.001 	"/>
	<circle  fill="#212121" cx="12" cy="46.001" r="1" />
	<path fill="#E0E0E0" stroke="black" d="M51,35.001c0,1.101-0.9,2-2,2H15c-1.1,0-2-0.899-2-2v-12c0-1.101,0.9-2,2-2h34c1.1,0,2,0.899,2,2V35.001z"
		/>
	<path fill="#9E9E9E"  d="M55,18.001c0-0.55-0.45-1-1-1h-6c-0.55,0-1,0.45-1,1l0,0c0,0.55,0.45,1,1,1h6
		C54.55,19.001,55,18.551,55,18.001L55,18.001z"/>
	<g opacity="0.9">
		
	</g>
</g>
</svg>
