<?xml version="1.0" encoding="UTF-8" standalone="no"?>
<!DOCTYPE svg PUBLIC "-//W3C//DTD SVG 20010904//EN"
              "http://www.w3.org/TR/2001/REC-SVG-20010904/DTD/svg10.dtd">

<svg xmlns="http://www.w3.org/2000/svg"
     width="1in" height="1in"
     viewBox="0 0 720 720">
  <path id="Imported Path"
        fill="none" stroke="black" stroke-width=""
        d="M 550.23,321.35
           C 550.23,321.35 518.31,321.35 518.31,321.35
             518.31,321.35 513.41,326.26 513.41,326.26
             513.41,326.26 518.31,331.18 518.31,331.18
             518.31,331.18 550.23,331.18 550.23,331.18
             550.23,331.18 555.14,326.26 555.14,326.26
             555.14,326.26 550.23,321.35 550.23,321.35
             550.23,321.35 550.23,321.35 550.23,321.35 Z
           M 464.31,294.35
           C 464.31,294.35 454.50,290.67 454.50,290.67
             454.50,290.67 454.50,322.58 454.50,322.58
             454.50,322.58 456.95,325.04 456.95,325.04
             456.95,325.04 464.31,317.67 464.31,317.67
             464.31,317.67 464.31,294.35 464.31,294.35
             464.31,294.35 464.31,294.35 464.31,294.35 Z
           M 454.50,361.85
           C 454.50,361.85 464.31,358.17 464.31,358.17
             464.31,358.17 464.31,334.85 464.31,334.85
             464.31,334.85 456.95,327.48 456.95,327.48
             456.95,327.48 454.50,329.94 454.50,329.94
             454.50,329.94 454.50,361.85 454.50,361.85
             454.50,361.85 454.50,361.85 454.50,361.85 Z
           M 501.13,370.44
           C 501.13,370.44 497.45,360.63 497.45,360.63
             497.45,360.63 464.31,360.63 464.31,360.63
             464.31,360.63 454.50,364.31 454.50,364.31
             454.50,364.31 460.63,370.44 460.63,370.44
             460.63,370.44 501.13,370.44 501.13,370.44
             501.13,370.44 501.13,370.44 501.13,370.44 Z
           M 497.46,291.89
           C 497.46,291.89 501.13,282.07 501.13,282.07
             501.13,282.07 460.77,282.07 460.77,282.07
             460.77,282.07 454.61,288.21 454.61,288.21
             454.61,288.21 464.43,291.89 464.43,291.89
             464.43,291.89 497.46,291.89 497.46,291.89
             497.46,291.89 497.46,291.89 497.46,291.89 Z
           M 496.23,321.35
           C 496.23,321.35 464.31,321.35 464.31,321.35
             464.31,321.35 459.39,326.26 459.39,326.26
             459.39,326.26 464.31,331.18 464.31,331.18
             464.31,331.18 496.23,331.18 496.23,331.18
             496.23,331.18 501.13,326.26 501.13,326.26
             501.13,326.26 496.23,321.35 496.23,321.35
             496.23,321.35 496.23,321.35 496.23,321.35 Z
           M 437.32,321.35
           C 437.32,321.35 405.43,321.35 405.43,321.35
             405.43,321.35 400.50,326.26 400.50,326.26
             400.50,326.26 405.42,331.18 405.42,331.18
             405.42,331.18 437.32,331.18 437.32,331.18
             437.32,331.18 442.23,326.26 442.23,326.26
             442.23,326.26 437.32,321.35 437.32,321.35
             437.32,321.35 437.32,321.35 437.32,321.35 Z
           M 339.14,326.26
           C 339.14,326.26 346.50,318.88 346.50,318.88
             346.50,318.88 346.50,293.12 346.50,293.12
             346.50,293.12 342.82,283.30 342.82,283.30
             342.82,283.30 336.69,289.43 336.69,289.43
             336.69,289.43 336.69,323.81 336.69,323.81
             336.69,323.81 339.14,326.26 339.14,326.26
             339.14,326.26 339.14,326.26 339.14,326.26 Z
           M 346.50,334.86
           C 346.50,334.86 339.14,327.48 339.14,327.48
             339.14,327.48 336.69,329.94 336.69,329.94
             336.69,329.94 336.69,364.31 336.69,364.31
             336.69,364.31 342.82,370.44 342.82,370.44
             342.82,370.44 346.50,360.63 346.50,360.63
             346.50,360.63 346.50,334.86 346.50,334.86
             346.50,334.86 346.50,334.86 346.50,334.86 Z
           M 375.94,318.89
           C 375.94,318.89 375.94,312.76 375.94,312.76
             375.94,312.76 356.31,293.13 356.31,293.13
             356.31,293.13 348.94,293.13 348.94,293.13
             348.94,293.13 348.94,300.49 348.94,300.49
             348.94,300.49 367.36,318.89 367.36,318.89
             367.36,318.89 375.95,318.89 375.95,318.89
             375.95,318.89 375.94,318.89 375.94,318.89 Z
           M 378.42,318.89
           C 378.42,318.89 385.77,326.27 385.77,326.27
             385.77,326.27 388.24,323.82 388.24,323.82
             388.24,323.82 388.24,289.44 388.24,289.44
             388.24,289.44 382.09,283.31 382.09,283.31
             382.09,283.31 378.42,293.13 378.42,293.13
             378.42,293.13 378.42,318.89 378.42,318.89
             378.42,318.89 378.42,318.89 378.42,318.89 Z
           M 385.77,327.48
           C 385.77,327.48 378.42,334.86 378.42,334.86
             378.42,334.86 378.42,360.63 378.42,360.63
             378.42,360.63 382.10,370.44 382.10,370.44
             382.10,370.44 388.24,364.31 388.24,364.31
             388.24,364.31 388.24,329.94 388.24,329.94
             388.24,329.94 385.77,327.48 385.77,327.48
             385.77,327.48 385.77,327.48 385.77,327.48 Z
           M 319.50,321.34
           C 319.50,321.34 287.60,321.34 287.60,321.34
             287.60,321.34 282.67,326.26 282.67,326.26
             282.67,326.26 287.60,331.18 287.60,331.18
             287.60,331.18 319.50,331.18 319.50,331.18
             319.50,331.18 324.40,326.26 324.40,326.26
             324.40,326.26 319.50,321.35 319.50,321.35
             319.50,321.35 319.50,321.34 319.50,321.34 Z
           M 221.32,325.05
           C 221.32,325.05 228.68,317.67 228.68,317.67
             228.68,317.67 228.68,291.89 228.68,291.89
             228.68,291.89 225.00,288.21 225.00,288.21
             225.00,288.21 218.87,294.35 218.87,294.35
             218.87,294.35 218.87,322.58 218.87,322.58
             218.87,322.58 221.32,325.05 221.32,325.05
             221.32,325.05 221.32,325.05 221.32,325.05 Z
           M 228.68,334.86
           C 228.68,334.86 221.32,327.48 221.32,327.48
             221.32,327.48 218.87,329.94 218.87,329.94
             218.87,329.94 218.87,358.18 218.87,358.18
             218.87,358.18 225.00,364.31 225.00,364.31
             225.00,364.31 228.68,360.63 228.68,360.63
             228.68,360.63 228.68,334.86 228.68,334.86
             228.68,334.86 228.68,334.86 228.68,334.86 Z
           M 258.13,291.89
           C 258.13,291.89 263.05,286.98 263.05,286.98
             263.05,286.98 258.13,282.06 258.13,282.06
             258.13,282.06 231.13,282.06 231.13,282.06
             231.13,282.06 226.23,286.98 226.23,286.98
             226.23,286.98 231.13,291.89 231.13,291.89
             231.13,291.89 258.13,291.89 258.13,291.89
             258.13,291.89 258.13,291.89 258.13,291.89 Z
           M 263.05,365.54
           C 263.05,365.54 258.13,360.62 258.13,360.62
             258.13,360.62 231.13,360.62 231.13,360.62
             231.13,360.62 226.23,365.54 226.23,365.54
             226.23,365.54 231.13,370.44 231.13,370.44
             231.13,370.44 258.13,370.44 258.13,370.44
             258.13,370.44 263.05,365.54 263.05,365.54
             263.05,365.54 263.05,365.54 263.05,365.54 Z
           M 260.60,317.67
           C 260.60,317.67 267.95,325.05 267.95,325.05
             267.95,325.05 270.42,322.58 270.42,322.58
             270.42,322.58 270.42,294.35 270.42,294.35
             270.42,294.35 264.27,288.21 264.27,288.21
             264.27,288.21 260.60,291.89 260.60,291.89
             260.60,291.89 260.60,317.67 260.60,317.67
             260.60,317.67 260.60,317.67 260.60,317.67 Z
           M 267.95,327.48
           C 267.95,327.48 260.60,334.86 260.60,334.86
             260.60,334.86 260.60,360.63 260.60,360.63
             260.60,360.63 264.27,364.31 264.27,364.31
             264.27,364.31 270.42,358.18 270.42,358.18
             270.42,358.18 270.42,329.94 270.42,329.94
             270.42,329.94 267.95,327.48 267.95,327.48
             267.95,327.48 267.95,327.48 267.95,327.48 Z
           M 201.69,321.35
           C 201.69,321.35 169.79,321.35 169.79,321.35
             169.79,321.35 164.87,326.26 164.87,326.26
             164.87,326.26 169.79,331.18 169.79,331.18
             169.79,331.18 201.69,331.18 201.69,331.18
             201.69,331.18 206.59,326.26 206.59,326.26
             206.59,326.26 201.69,321.35 201.69,321.35
             201.69,321.35 201.69,321.35 201.69,321.35 Z
           M 618.75,202.51
           C 618.75,208.70 613.69,213.76 607.50,213.76
             607.50,213.76 540.00,213.76 540.00,213.76
             533.81,213.76 528.75,208.70 528.75,202.51
             528.75,202.51 528.75,202.51 528.75,202.51
             528.75,196.32 533.81,191.26 540.00,191.26
             540.00,191.26 607.50,191.26 607.50,191.26
             613.69,191.26 618.75,196.32 618.75,202.51
             618.75,202.51 618.75,202.51 618.75,202.51 Z
           M 573.75,258.76
           C 573.75,246.37 563.63,236.26 551.25,236.26
             551.25,236.26 168.75,236.26 168.75,236.26
             156.38,236.26 146.25,246.37 146.25,258.76
             146.25,258.76 146.25,393.76 146.25,393.76
             146.25,406.15 156.38,416.26 168.75,416.26
             168.75,416.26 551.25,416.26 551.25,416.26
             563.63,416.26 573.75,406.15 573.75,393.76
             573.75,393.76 573.75,258.76 573.75,258.76 Z
           M 135.00,506.26
           C 128.79,506.26 123.75,511.30 123.75,517.51
             123.75,523.72 128.79,528.76 135.00,528.76
             141.21,528.76 146.25,523.72 146.25,517.51
             146.25,511.30 141.21,506.26 135.00,506.26 Z
           M 303.75,506.26
           C 303.75,506.26 303.75,528.76 303.75,528.76
             303.75,528.76 326.25,517.51 326.25,517.51
             326.25,517.51 303.75,506.26 303.75,506.26 Z
           M 236.25,506.26
           C 236.25,506.26 236.25,528.76 236.25,528.76
             236.25,528.76 213.75,517.51 213.75,517.51
             213.75,517.51 236.25,506.26 236.25,506.26 Z
           M 548.53,488.42
           C 552.15,484.80 552.15,478.85 548.53,475.22
             548.53,475.22 548.53,475.22 548.53,475.22
             544.90,471.60 538.96,471.60 535.34,475.22
             535.34,475.22 508.96,501.60 508.96,501.60
             505.35,505.23 505.35,511.18 508.96,514.80
             508.96,514.80 508.96,514.80 508.96,514.80
             512.58,518.42 518.53,518.42 522.16,514.80
             522.16,514.80 548.53,488.42 548.53,488.42 Z
           M 618.74,506.26
           C 618.74,506.26 618.74,483.76 618.74,483.76
             618.74,471.37 608.61,461.26 596.24,461.26
             596.24,461.26 416.24,461.26 416.24,461.26
             403.88,461.26 401.85,467.34 411.74,474.76
             411.74,474.76 465.75,515.26 465.75,515.26
             475.64,522.69 493.88,528.76 506.25,528.76
             506.25,528.76 596.25,528.76 596.25,528.76
             608.63,528.76 618.75,518.65 618.75,506.26
             618.75,506.26 618.74,506.26 618.74,506.26 Z
           M 101.25,168.76
           C 101.25,168.76 618.76,168.76 618.76,168.76
             631.14,168.76 641.26,178.88 641.26,191.26
             641.26,191.26 641.26,528.76 641.26,528.76
             641.26,541.15 631.14,551.26 618.76,551.26
             618.76,551.26 495.01,551.26 495.01,551.26
             482.64,551.26 464.59,544.95 454.94,537.21
             454.94,537.21 377.57,475.31 377.57,475.31
             367.91,467.58 349.88,461.26 337.50,461.26
             337.50,461.26 101.25,461.26 101.25,461.26
             88.88,461.26 78.75,451.15 78.75,438.76
             78.75,438.76 78.75,191.26 78.75,191.26
             78.75,178.88 88.88,168.76 101.25,168.76
             101.25,168.76 101.25,168.76 101.25,168.76 Z
           M 348.75,495.01
           C 348.75,488.82 343.69,483.76 337.50,483.76
             337.50,483.76 292.50,483.76 292.50,483.76
             286.31,483.76 281.25,488.82 281.25,495.01
             281.25,495.01 281.25,540.01 281.25,540.01
             281.25,546.20 286.31,551.26 292.50,551.26
             292.50,551.26 337.50,551.26 337.50,551.26
             343.69,551.26 348.75,546.20 348.75,540.01
             348.75,540.01 348.75,495.01 348.75,495.01 Z
           M 258.75,495.01
           C 258.75,488.82 253.69,483.76 247.50,483.76
             247.50,483.76 202.50,483.76 202.50,483.76
             196.31,483.76 191.25,488.82 191.25,495.01
             191.25,495.01 191.25,540.01 191.25,540.01
             191.25,546.20 196.31,551.26 202.50,551.26
             202.50,551.26 247.50,551.26 247.50,551.26
             253.69,551.26 258.75,546.20 258.75,540.01
             258.75,540.01 258.75,495.01 258.75,495.01 Z
           M 168.75,495.01
           C 168.75,488.82 163.69,483.76 157.50,483.76
             157.50,483.76 112.50,483.76 112.50,483.76
             106.31,483.76 101.25,488.82 101.25,495.01
             101.25,495.01 101.25,540.01 101.25,540.01
             101.25,546.20 106.31,551.26 112.50,551.26
             112.50,551.26 157.50,551.26 157.50,551.26
             163.69,551.26 168.75,546.20 168.75,540.01
             168.75,540.01 168.75,495.01 168.75,495.01 Z
           M 697.50,191.26
           C 697.50,154.14 667.13,123.76 630.00,123.76
             630.00,123.76 90.00,123.76 90.00,123.76
             52.88,123.76 22.50,154.14 22.50,191.26
             22.50,191.26 22.50,528.76 22.50,528.76
             22.50,565.89 52.88,596.26 90.00,596.26
             90.00,596.26 630.00,596.26 630.00,596.26
             667.13,596.26 697.50,565.89 697.50,528.76
             697.50,528.76 697.50,191.26 697.50,191.26 Z" />
</svg>
