<?xml version="1.0" encoding="iso-8859-1"?>
<!-- Generator: Adobe Illustrator 18.0.0, SVG Export Plug-In . SVG Version: 6.00 Build 0)  -->
<!DOCTYPE svg PUBLIC "-//W3C//DTD SVG 1.1//EN" "http://www.w3.org/Graphics/SVG/1.1/DTD/svg11.dtd">
<svg class="icon" xmlns="http://www.w3.org/2000/svg" xmlns:xlink="http://www.w3.org/1999/xlink" version="1.1" id="Capa_1" x="0px" y="0px" viewBox="0 0 297 297" style="enable-background:new 0 0 297 297;" xml:space="preserve" width="512px" height="512px">
<g>
	<path fill="" stroke="" stroke-width="0" d="M265.79,51.894H31.21C14,51.894,0,65.894,0,83.104v130.793c0,17.21,14,31.21,31.21,31.21h234.58   c17.21,0,31.21-14,31.21-31.21V83.104C297,65.894,283,51.894,265.79,51.894z M276.865,83.104v72.635h-49.082V72.029h38.007   C271.897,72.029,276.865,76.996,276.865,83.104z M31.21,72.029h176.438v83.709H20.136V83.104   C20.136,76.996,25.104,72.029,31.21,72.029z M265.79,224.971H31.21c-6.106,0-11.074-4.967-11.074-11.074v-38.023h256.729v38.023   C276.865,220.004,271.897,224.971,265.79,224.971z"  />
	<path class="stroke-1" stroke-width="1px" d="M183.106,190.357h-17.302c-5.56,0-10.067,4.507-10.067,10.067c0,5.559,4.508,10.068,10.067,10.068h17.302   c5.561,0,10.067-4.51,10.067-10.068C193.174,194.864,188.667,190.357,183.106,190.357z" />
	<path class="stroke-1" stroke-width="1px"  d="M131.194,190.357h-17.303c-5.561,0-10.068,4.507-10.068,10.067c0,5.559,4.508,10.068,10.068,10.068h17.303   c5.561,0,10.068-4.51,10.068-10.068C141.263,194.864,136.755,190.357,131.194,190.357z" />
	<path class="stroke-1" stroke-width="1px"  d="M252.325,106.639c2.648,0,5.244-1.068,7.117-2.939c1.872-1.884,2.95-4.472,2.95-7.128c0-2.649-1.078-5.246-2.95-7.118   c-1.873-1.872-4.47-2.95-7.117-2.95c-2.659,0-5.246,1.078-7.119,2.95c-1.872,1.872-2.949,4.469-2.949,7.118   c0,2.656,1.077,5.254,2.949,7.128C247.079,105.57,249.666,106.639,252.325,106.639z" />
	<path class="stroke-1" stroke-width="1px"  d="M252.325,121.125c-2.648,0-5.246,1.078-7.119,2.951c-1.882,1.871-2.949,4.469-2.949,7.115c0,2.65,1.067,5.246,2.949,7.119   c1.873,1.873,4.471,2.949,7.119,2.949c2.648,0,5.234-1.076,7.117-2.949c1.872-1.873,2.95-4.469,2.95-7.119   c0-2.646-1.078-5.244-2.95-7.115C257.56,122.203,254.973,121.125,252.325,121.125z"/>
</g>

</svg>
