<?xml version="1.0" encoding="iso-8859-1"?>
<!-- Generator: Adobe Illustrator 19.0.0, SVG Export Plug-In . SVG Version: 6.00 Build 0)  -->
<svg version="1.1" id="Layer_1" xmlns="http://www.w3.org/2000/svg" xmlns:xlink="http://www.w3.org/1999/xlink" x="0px" y="0px"
	 viewBox="0 0 512 512" style="enable-background:new 0 0 512 512;" xml:space="preserve">
<g>
	<g>
		<rect x="204.02" y="31.605" width="15.802" height="15.802"/>
	</g>
</g>
<g>
	<g>
		<rect x="179.79" y="31.605" width="15.802" height="15.802"/>
	</g>
</g>
<g>
	<g>
		<rect x="228.251" y="31.605" width="15.802" height="15.802"/>
	</g>
</g>
<g>
	<g>
		<rect x="108.152" y="464.593" width="40.033" height="15.802"/>
	</g>
</g>
<g>
	<g>
		<rect x="276.712" y="464.593" width="40.033" height="15.802"/>
	</g>
</g>
<g>
	<g>
		<path d="M348.353,95.868V0H75.497v512h272.856v-87.44H332.55v8.428H91.299V79.012H332.55v16.856H348.353z M332.55,448.79v47.407
			H91.299V448.79H332.55z M91.299,63.21V15.802H332.55V63.21H91.299z"/>
	</g>
</g>
<g>
	<g>
		<path d="M212.181,103.739v118.313L195.208,256l16.973,33.948v126.333h224.322V103.739H212.181z M227.983,400.479V286.218
			L212.875,256l15.107-30.217V119.541H420.7v280.937H227.983z"/>
	</g>
</g>
<g>
	<g>
		<path d="M244.261,135.818v168.183h160.162V135.818H244.261z M356.781,288.199h-64.263V256h64.263V288.199z M388.621,288.199
			h-16.037v-48.002h-95.868v48.002h-16.652V151.62h128.557V288.199z"/>
	</g>
</g>
<g>
	<g>
		<path d="M324.343,159.879c-13.201,0-23.942,10.74-23.942,23.942v24.06c0,13.201,10.74,23.941,23.942,23.941
			c13.201,0,23.941-10.739,23.941-23.941v-24.06C348.283,170.619,337.544,159.879,324.343,159.879z M332.481,207.879
			c0,4.488-3.65,8.138-8.138,8.138s-8.139-3.65-8.139-8.138v-24.06c0-4.488,3.651-8.139,8.139-8.139s8.138,3.651,8.138,8.139
			V207.879z"/>
	</g>
</g>
<g>
	<g>
		<path d="M131.861,119.778c-13.201,0-23.941,10.739-23.941,23.941c0,13.201,10.74,23.942,23.941,23.942
			c13.201,0,23.942-10.74,23.942-23.942C155.803,130.519,145.062,119.778,131.861,119.778z M131.861,151.859
			c-4.488,0-8.138-3.651-8.138-8.139c0-4.488,3.651-8.138,8.138-8.138c4.488,0,8.139,3.65,8.139,8.138
			S136.349,151.859,131.861,151.859z"/>
	</g>
</g>
<g>
	<g>
		<rect x="163.987" y="135.901" width="40.033" height="15.802"/>
	</g>
</g>
<g>
	<g>
		<path d="M131.861,175.918c-13.201,0-23.941,10.74-23.941,23.941c0,13.201,10.74,23.942,23.941,23.942
			c13.201,0,23.942-10.74,23.942-23.942C155.803,186.659,145.062,175.918,131.861,175.918z M131.861,207.999
			c-4.488,0-8.138-3.651-8.138-8.139c0-4.488,3.651-8.138,8.138-8.138c4.488,0,8.139,3.651,8.139,8.138
			C140,204.348,136.349,207.999,131.861,207.999z"/>
	</g>
</g>
<g>
	<g>
		<rect x="163.987" y="191.737" width="40.033" height="15.802"/>
	</g>
</g>
<g>
	<g>
		<path d="M131.861,232.058c-13.201,0-23.941,10.74-23.941,23.942c0,13.201,10.74,23.942,23.941,23.942
			c13.201,0,23.942-10.74,23.942-23.942C155.803,242.799,145.062,232.058,131.861,232.058z M131.861,264.139
			c-4.488,0-8.138-3.651-8.138-8.139c0-4.488,3.651-8.139,8.138-8.139c4.488,0,8.139,3.651,8.139,8.139
			C140,260.488,136.349,264.139,131.861,264.139z"/>
	</g>
</g>
<g>
	<g>
		<rect x="163.987" y="248.626" width="24.23" height="15.802"/>
	</g>
</g>
<g>
	<g>
		<path d="M131.861,288.199c-13.201,0-23.941,10.74-23.941,23.942c0,13.201,10.74,23.942,23.941,23.942
			c13.201,0,23.942-10.74,23.942-23.942C155.803,298.938,145.062,288.199,131.861,288.199z M131.861,320.279
			c-4.488,0-8.138-3.651-8.138-8.139c0-4.488,3.651-8.139,8.138-8.139c4.488,0,8.139,3.651,8.139,8.139
			C140,316.628,136.349,320.279,131.861,320.279z"/>
	</g>
</g>
<g>
	<g>
		<rect x="163.987" y="304.461" width="40.033" height="15.802"/>
	</g>
</g>
<g>
	<g>
		<path d="M131.861,344.339c-13.201,0-23.941,10.74-23.941,23.942c0,13.201,10.74,23.941,23.941,23.941
			c13.201,0,23.942-10.739,23.942-23.941C155.803,355.079,145.062,344.339,131.861,344.339z M131.861,376.419
			c-4.488,0-8.138-3.65-8.138-8.138s3.651-8.139,8.138-8.139c4.488,0,8.139,3.651,8.139,8.139S136.349,376.419,131.861,376.419z"/>
	</g>
</g>
<g>
	<g>
		<rect x="163.987" y="360.296" width="40.033" height="15.802"/>
	</g>
</g>
<g>
	<g>
		<rect x="244.053" y="311.835" width="160.132" height="15.802"/>
	</g>
</g>
<g>
	<g>
		<rect x="244.053" y="336.066" width="15.802" height="15.802"/>
	</g>
</g>
<g>
	<g>
		<rect x="268.284" y="336.066" width="15.802" height="15.802"/>
	</g>
</g>
<g>
	<g>
		<rect x="292.514" y="336.066" width="15.802" height="15.802"/>
	</g>
</g>
<g>
	<g>
		<rect x="316.745" y="336.066" width="15.802" height="15.802"/>
	</g>
</g>
<g>
	<g>
		<rect x="316.745" y="368.724" width="87.44" height="15.802"/>
	</g>
</g>
<g>
</g>
<g>
</g>
<g>
</g>
<g>
</g>
<g>
</g>
<g>
</g>
<g>
</g>
<g>
</g>
<g>
</g>
<g>
</g>
<g>
</g>
<g>
</g>
<g>
</g>
<g>
</g>
<g>
</g>
</svg>
