<?xml version="1.0" encoding="UTF-8" standalone="no"?>
<!DOCTYPE svg PUBLIC "-//W3C//DTD SVG 20010904//EN"
              "http://www.w3.org/TR/2001/REC-SVG-20010904/DTD/svg10.dtd">

<svg xmlns="http://www.w3.org/2000/svg"
     width="0.555556in" height="0.555556in"
     viewBox="0 0 40 40">
  <path id="Selection"
        fill="none" stroke="black" stroke-width="1"
        d="M 25.42,9.00
           C 24.36,20.38 4.14,15.54 0.51,10.16
             5.29,11.54 16.66,15.66 20.76,12.40
             24.41,9.50 22.75,5.29 19.89,4.76
             17.93,4.39 15.62,6.06 14.00,7.00
             16.72,-1.52 26.06,2.19 25.42,9.00 Z
           M 22.00,20.11
           C 25.15,20.83 30.27,21.15 32.87,22.57
             37.75,25.25 37.75,32.13 33.72,35.26
             27.45,40.14 16.38,32.45 27.00,26.00
             26.33,27.87 24.80,30.79 25.89,32.68
             27.82,36.02 33.14,34.03 34.12,29.98
             34.95,26.53 31.93,24.28 29.00,23.43
             29.00,23.43 22.00,22.33 22.00,22.33
             22.00,22.33 0.62,17.87 0.71,16.02
             0.71,16.02 1.60,16.09 1.60,16.09
             8.61,16.68 14.90,18.50 22.00,20.11 Z
           M 18.65,31.95
           C 16.36,36.80 7.87,39.72 7.00,29.00
             7.00,29.00 9.00,29.00 9.00,29.00
             9.30,30.74 9.38,32.77 11.31,33.60
             14.09,34.80 17.85,31.56 16.60,28.10
             14.41,22.06 0.01,23.17 0.89,19.42
             5.76,20.23 23.24,22.22 18.65,31.95 Z" />
</svg>
