<?xml version="1.0" encoding="UTF-8" standalone="no"?>
<!DOCTYPE svg PUBLIC "-//W3C//DTD SVG 20010904//EN"
              "http://www.w3.org/TR/2001/REC-SVG-20010904/DTD/svg10.dtd">

<svg xmlns="http://www.w3.org/2000/svg"
     width="1.94444in" height="1.22222in"
     viewBox="0 0 1400 880">
  <path id="Selection #2"
        fill="none" stroke="black" stroke-width="1"
        d="M 1040.00,80.00
           C 1040.00,80.00 1040.00,240.00 1040.00,240.00
             1040.00,240.00 1320.00,240.00 1320.00,240.00
             1320.00,240.00 1320.00,80.00 1320.00,80.00
             1320.00,80.00 1040.00,80.00 1040.00,80.00 Z
           M 800.00,280.00
           C 800.00,280.00 800.00,520.00 800.00,520.00
             800.00,520.00 1120.00,520.00 1120.00,520.00
             1120.00,520.00 1120.00,640.00 1120.00,640.00
             1120.00,640.00 800.00,640.00 800.00,640.00
             800.00,640.00 800.00,800.00 800.00,800.00
             800.00,800.00 1320.00,800.00 1320.00,800.00
             1320.00,800.00 1320.00,360.00 1320.00,360.00
             1320.00,360.00 1000.00,360.00 1000.00,360.00
             1000.00,360.00 1000.00,280.00 1000.00,280.00
             1000.00,280.00 800.00,280.00 800.00,280.00 Z" />
</svg>
